<svg width="184" height="184" viewBox="0 0 184 184" fill="none" xmlns="http://www.w3.org/2000/svg"><path d="M181.125 85.832l-45.721 4.016h45.915a1.89 1.89 0 011.887 1.887c0 1.016-.871 1.887-1.887 1.887h-45.915l45.721 4.016c.968.096 1.742.919 1.742 1.887v.145a1.908 1.908 0 01-2.08 1.742l-45.722-4.016 45.19 7.983c.919.145 1.596.968 1.596 1.887 0 .097 0 .242-.048.339-.194 1.016-1.161 1.741-2.226 1.548l-45.189-7.983 44.318 11.902a1.931 1.931 0 011.355 2.322 1.931 1.931 0 01-2.322 1.355l-44.367-11.902 43.157 15.724c.968.339 1.5 1.452 1.161 2.419-.338.968-1.451 1.5-2.419 1.161l-43.157-15.724 41.609 19.401c.968.436 1.355 1.597.919 2.516-.435.968-1.596 1.355-2.516.92l-41.609-19.402 39.771 22.934c.919.532 1.209 1.693.677 2.612s-1.693 1.21-2.613.678l-39.77-22.934 37.593 26.32a1.883 1.883 0 01.484 2.661 1.883 1.883 0 01-2.661.484h-.048l-37.594-26.32 35.175 29.513c.822.678.919 1.887.241 2.661-.677.775-1.886.92-2.661.242L123.937 121.2l32.465 32.465c.726.725.726 1.935 0 2.709-.726.726-1.935.726-2.709 0l-32.417-32.465 29.514 35.175c.677.822.58 1.983-.242 2.661-.823.677-1.984.58-2.661-.242l-29.514-35.174 26.32 37.593a1.933 1.933 0 01-.483 2.661 1.934 1.934 0 01-2.661-.484l-26.321-37.593 22.934 39.77c.532.92.193 2.081-.678 2.613-.919.532-2.08.193-2.612-.677l-22.934-39.771 19.402 41.609c.435.968.048 2.081-.919 2.516-.968.435-2.081.048-2.516-.919l-19.402-41.609 15.725 43.157c.338.968-.146 2.08-1.162 2.419-.967.339-2.08-.145-2.419-1.161l-15.724-43.157 11.902 44.366a1.872 1.872 0 01-1.355 2.323 1.872 1.872 0 01-2.322-1.355l-11.902-44.367 7.983 45.238c0 .097.048.242.048.339a1.89 1.89 0 01-1.887 1.887c-.919 0-1.693-.678-1.886-1.597l-7.984-45.189 4.016 45.721v.145a1.889 1.889 0 01-1.887 1.887c-.967 0-1.79-.774-1.887-1.741l-4.015-45.722v45.915a1.89 1.89 0 01-1.887 1.887c-1.016 0-1.887-.871-1.887-1.887v-45.915l-4.016 45.722a1.907 1.907 0 01-2.08 1.741 1.907 1.907 0 01-1.742-2.08l4.015-45.722-7.983 45.19c-.193 1.016-1.16 1.741-2.225 1.548-1.016-.194-1.742-1.161-1.548-2.226l7.983-45.189-11.902 44.318a1.932 1.932 0 01-2.323 1.355 1.931 1.931 0 01-1.355-2.322L78.7 133.199l-15.725 43.157c-.338.968-1.451 1.5-2.419 1.161-.967-.338-1.5-1.451-1.161-2.419l15.724-43.157-19.401 41.609c-.436.968-1.597 1.355-2.516.919-.968-.435-1.355-1.596-.92-2.516l19.402-41.609-22.933 39.771c-.532.919-1.694 1.209-2.613.677-.92-.532-1.21-1.693-.677-2.613l22.933-39.77-26.32 37.593c-.58.871-1.79 1.065-2.661.484-.87-.58-1.064-1.79-.484-2.661v-.048l26.32-37.594-29.513 35.175c-.677.822-1.887.919-2.661.241-.774-.677-.92-1.886-.242-2.661l29.513-35.174-32.464 32.465c-.726.726-1.936.726-2.71 0-.726-.726-.726-1.935 0-2.709l32.465-32.465-35.174 29.513c-.823.678-1.984.581-2.661-.242-.678-.822-.58-1.983.242-2.661l35.174-29.513-37.594 26.32a1.933 1.933 0 01-2.66-.484 1.933 1.933 0 01.483-2.661l37.594-26.32-39.77 22.933c-.92.533-2.081.194-2.614-.677-.532-.919-.193-2.08.678-2.613l39.77-22.933-41.609 19.401c-.967.436-2.08.049-2.516-.919-.435-.967-.048-2.08.92-2.516l41.609-19.401-43.254 15.869c-.968.339-2.08-.145-2.468-1.112-.339-.968.145-2.081 1.113-2.468l43.157-15.724L5.69 116.749a1.872 1.872 0 01-2.322-1.355 1.871 1.871 0 011.355-2.322L49.09 101.17 3.9 109.153a1.913 1.913 0 01-2.225-1.548 1.913 1.913 0 011.548-2.226l45.19-7.983-45.722 4.016c-1.016.096-1.936-.629-2.08-1.694v-.048a1.907 1.907 0 011.74-2.08l45.723-4.016H2.158a1.89 1.89 0 01-1.887-1.887c0-1.016.871-1.887 1.887-1.887h45.916L2.352 85.784a1.907 1.907 0 01-1.742-2.08 1.907 1.907 0 012.08-1.742l45.722 4.016-45.19-7.984c-1.015-.193-1.741-1.16-1.547-2.225.193-1.016 1.16-1.742 2.225-1.548l45.19 7.983L4.77 70.302a1.931 1.931 0 01-1.355-2.323 1.931 1.931 0 012.323-1.355l44.367 11.903L6.947 62.802c-.967-.338-1.5-1.451-1.16-2.419.338-.968 1.45-1.5 2.418-1.161l43.158 15.724-41.61-19.401c-.967-.436-1.354-1.597-.919-2.516.436-.968 1.597-1.355 2.516-.92l41.61 19.402-39.77-22.933c-.92-.532-1.21-1.694-.678-2.613.532-.92 1.694-1.21 2.613-.677l39.77 22.933-37.593-26.32a1.883 1.883 0 01-.484-2.661c.58-.87 1.79-1.064 2.661-.484h.049l37.593 26.32-35.174-29.513c-.823-.677-.92-1.887-.242-2.661.677-.823 1.887-.92 2.661-.242L59.54 62.173 27.075 29.71c-.725-.726-.725-1.936 0-2.71.726-.726 1.936-.726 2.71 0l32.464 32.465L32.736 24.29c-.677-.823-.58-1.984.242-2.661.823-.678 1.984-.58 2.661.242l29.514 35.174-26.32-37.593a1.933 1.933 0 01.483-2.662 1.933 1.933 0 012.661.484l26.32 37.594-22.933-39.77c-.532-.92-.194-2.081.677-2.614.92-.532 2.08-.193 2.613.678l22.933 39.77-19.401-41.609c-.435-.967-.048-2.08.92-2.516.967-.435 2.08-.048 2.515.92l19.401 41.609-15.675-43.11c-.34-.967.145-2.08 1.16-2.418.968-.339 2.081.145 2.42 1.16L78.65 50.127 66.75 5.76a1.872 1.872 0 011.355-2.322 1.872 1.872 0 012.322 1.355l11.902 44.366-7.983-45.286c-.193-1.016.532-2.032 1.548-2.225 1.016-.194 2.032.532 2.226 1.548l7.983 45.19-4.016-45.722c-.096-1.016.63-1.936 1.694-2.08h.048a1.907 1.907 0 012.08 1.741l4.016 45.722V2.13A1.89 1.89 0 0191.811.244c1.016 0 1.887.87 1.887 1.887v45.915l4.016-45.722c.097-.968.92-1.742 1.887-1.742h.145a1.907 1.907 0 011.742 2.08l-4.016 45.722 7.983-45.189c.145-.92.968-1.597 1.887-1.597.097 0 .242 0 .339.049 1.016.193 1.742 1.16 1.548 2.225l-7.983 45.19 11.902-44.319a1.931 1.931 0 012.322-1.354c1.016.241 1.597 1.306 1.355 2.322l-11.902 44.367L120.647 6.92c.339-.967 1.452-1.5 2.419-1.16.968.338 1.5 1.45 1.162 2.418l-15.725 43.158 19.402-41.61c.435-.967 1.596-1.354 2.516-.919.919.436 1.354 1.597.919 2.516l-19.402 41.61 22.934-39.771c.532-.92 1.693-1.21 2.612-.678.92.533 1.21 1.694.678 2.613l-22.934 39.77 26.321-37.593c.58-.87 1.79-1.064 2.661-.483.87.58 1.064 1.79.483 2.66v.049l-26.32 37.593 29.514-35.174c.677-.823 1.887-.92 2.661-.242.822.678.919 1.887.242 2.661l-29.514 35.174 32.465-32.464c.726-.726 1.935-.726 2.709 0 .726.725.726 1.935 0 2.709l-32.513 32.465 35.174-29.514c.823-.677 1.984-.58 2.661.242.678.823.581 1.984-.241 2.661l-35.175 29.514 37.594-26.32a1.933 1.933 0 012.661.483c.58.871.387 2.032-.484 2.661l-37.593 26.32 39.77-22.933c.919-.532 2.081-.193 2.613.678.532.919.193 2.08-.678 2.612l-39.77 22.934 41.609-19.402c.968-.435 2.08-.048 2.516.92.435.967.048 2.08-.919 2.515l-41.609 19.402 43.157-15.725c.967-.387 2.08.145 2.467 1.113s-.145 2.08-1.112 2.468L133.42 78.575l44.367-11.902a1.87 1.87 0 012.322 1.355 1.87 1.87 0 01-1.354 2.322l-44.367 11.902 45.238-7.983c.096 0 .242-.048.338-.048 1.065 0 1.887.87 1.887 1.886 0 .92-.677 1.694-1.596 1.887l-45.19 7.984 45.722-4.016h.145a1.89 1.89 0 011.887 1.887 1.881 1.881 0 01-1.694 1.983z" fill="#D3006A"/></svg>