<svg version="1.0" xmlns="http://www.w3.org/2000/svg" width="682.667" height="682.667" viewBox="0 0 512 512"><g fill="#fff"><path d="M247 20.7C157.8 23.5 75.3 80.3 39.5 163.6c-12.6 29.3-18.5 58.8-18.6 91.9 0 19 .9 29.3 4.3 46.5C37 362.6 73.9 417.4 126.5 452.5c28.8 19.2 67.3 33.3 102.4 37.5 12.1 1.4 42.1 1.4 54.2 0 71-8.5 134.9-49.1 172.9-110 17.4-27.8 30-63.9 34-96.9 1.4-12.1 1.4-42.1 0-54.2-6.1-51.2-28.9-99.1-65-136.3-47.3-48.8-109.7-74-178-71.9zm27.6 84.3c24.1 6.2 43.5 25.6 50.5 50.5 2.8 10.1 3.1 25.8.5 35.5-6.7 25.9-26.6 45.8-52.6 52.7-8.6 2.3-25.3 2.3-34 0-8.6-2.3-21.1-8.5-28.2-14.2-11.1-8.7-20.6-23.8-24.5-38.5-2.2-8.7-2.2-25.3.1-34 7.7-29.4 31.8-50.4 62.6-54.3 5.7-.8 18 .4 25.6 2.3zm-65.1 171.5c31.1 13.7 62.3 13.6 93.5-.3 15.2-6.7 22.4-6.2 29.8 2.2 6.1 7 6.6 16.4 1.3 24.8-3.3 5.2-11.3 9.8-25.9 14.9l-9.3 3.2 18.4 18.6c19.2 19.3 20.7 21.5 20.7 29.6 0 3.7-3 10.2-6 13.4-3.1 3.1-9.7 6.1-14 6.1-8.9 0-10.1-.9-36.7-27.3L256 336.6l-25.3 25.1C204.1 388.1 202.9 389 194 389c-4.3 0-10.9-3-14-6.1-3-3.2-6-9.7-6-13.4 0-8.1 1.5-10.3 20.7-29.6l18.4-18.6-6.8-2.2c-3.7-1.3-11-4.3-16.1-6.7-8-3.9-9.7-5.2-12.2-9.1-5.4-8.5-5-17.8 1.2-24.9 3.4-3.8 5.8-5.4 10.3-6.5 4.7-1.2 9.2-.1 20 4.6z"/><path d="M249.4 144.1c-6.3 1.5-14.4 6.9-18.1 12-11.2 15.7-5.8 37.1 11.5 45.6 7.4 3.6 18.2 3.8 25.3.6 23.6-10.6 24.7-43.6 1.9-55-7.2-3.6-14.3-4.7-20.6-3.2z"/></g></svg>