<svg version="1.0" xmlns="http://www.w3.org/2000/svg" width="1306.667" height="1306.667" viewBox="0 0 980 980"><path d="M456 1.1C352.5 8.6 256.2 47.4 176 113.9c-15 12.3-50.1 47.5-62.2 62.1C25.7 282.8-13.2 416.3 4 552.5 15.9 645.9 54.1 732.6 116.4 807c9.8 11.7 37 39.3 49.6 50.4 132.8 116.6 315.8 153.1 482.5 96.2 89.5-30.5 170-87.9 228.1-162.7 54-69.5 88.4-152 99.3-238.4 17.8-141-24.7-279.7-118.5-386.5-11.2-12.8-38.6-39.8-50.9-50.1C730.2 51.7 640 13.3 540 2.5 522.6.6 473.6-.2 456 1.1zm34 339.4c11.5 2.4 16 5.1 19 11l2.5 5v115l2.4 5.9c1.3 3.2 4.1 7.6 6.2 9.7 3.5 3.5 4.5 3.9 8.7 3.9 3.6 0 6-.7 9.3-2.8 18.8-12 52.8-65.6 73-115.2 3-7.3 6.6-14.6 8-16.3l2.7-3.2h54.5c53.9 0 54.6 0 57.4 2.1 10.5 7.8-5.3 38.7-50.6 98.7-30.3 40.2-34.5 47.3-34.6 57.7 0 9.6 2.4 12.9 29.5 40.5 51.3 52.4 65.1 72.5 56.8 83-1.2 1.5-4.9 4-8.2 5.6l-6.1 2.9h-43.7c-39.8 0-44.1-.2-49.6-1.9-14.7-4.6-25.2-13-46.7-37.6-26.7-30.5-37.4-37.5-49.1-31.9-11.3 5.4-18.4 22.3-20 47.9-.8 12.9-2.5 17.2-8.4 21.1l-3.9 2.6-27.8-.5c-23.5-.4-29.2-.8-37.1-2.5-29.9-6.9-59.5-21.4-83.6-41.1-35.9-29.5-77-88.9-118.5-171.1-21.2-42.1-30.3-62.4-29.9-67.4.2-3.3.9-4.4 3.7-6.3l3.4-2.3h44.6c41.7 0 44.8.1 47.4 1.9 4 2.6 4.8 4 12.7 22.2 17.2 39.7 43.6 84.4 60.7 102.9 14 15.1 26.6 15.9 33.6 2 6-12.1 8.5-38.1 6.8-71.5-1.7-35-5.9-45.5-20.8-52.9-2.8-1.5-6.5-2.9-8.2-3.2-3.9-.8-3.9-1.6 0-4.9 10.9-9.1 26.3-11.6 69.4-11 19.9.3 29 .8 34.5 2z" fill="#fff"/></svg>