<svg version="1.0" xmlns="http://www.w3.org/2000/svg" width="682.667" height="682.667" viewBox="0 0 512 512"><g fill="#fff"><path d="M235 6.6C140.9 15.2 61.8 72.9 25.5 159.4c-13.3 31.8-19.3 65.4-18.2 102 .8 27.2 4.6 48.3 12.8 72.3 12.8 37.2 31.8 67.4 60.3 95.8 30.3 30.2 67.4 51.8 108.1 63 59.2 16.2 121.2 10.4 175.5-16.6 49.9-24.8 88.8-63.8 113-113.4 11.5-23.6 18.6-46.1 22.7-71.5 2.6-16.4 2.6-58.9 0-74.3-9.2-54.5-32.6-100.6-70.1-138.1C391.7 40.7 344.1 16.8 290 8.5c-10.1-1.6-45.3-2.8-55-1.9zm180.6 103.8c2.3 2.3 3.4 4.3 3.4 6.2 0 5-53.1 257.7-55 262.2-1.5 3.3-2.9 4.7-6.2 6.2-4.7 2.1-9.3 2.5-13 1.1-1.3-.5-20.3-14-42.3-30-22-16-40.3-29-40.7-28.8-.3.1-10.8 9.7-23.2 21.4-23.1 21.7-25.3 23.2-31.5 21.8-6-1.3-7.1-3.7-23.6-53.2-8.6-26-16-47.5-16.4-47.8-.4-.2-18.3-5.9-39.7-12.5-28.2-8.8-39.5-12.8-41.3-14.5-1.5-1.5-2.5-3.8-2.8-6.7-1-8.5-1.8-8 62.2-31.8 74.1-27.6 211.1-78.6 238.5-88.8 11.8-4.4 23-8.1 24.9-8.1 2.5-.1 4.1.7 6.7 3.3z"/><path d="M344.5 161.6c-4.9 3.1-42.6 26.9-83.7 53.1-73.8 46.9-74.6 47.5-73.8 50.1.5 1.5 5.7 18.4 11.5 37.7 5.9 19.2 10.8 35.2 11.1 35.4.2.2.4-.2.4-1s1.1-11.5 2.5-23.9l2.4-22.5 3.8-3.5c2.1-1.9 31.7-28.7 65.8-59.5 76.6-69.2 75-67.7 74.2-69.8-1.1-2.9-4.9-1.9-14.2 3.9z"/></g></svg>