<svg xmlns="http://www.w3.org/2000/svg" viewBox="0 0 1024 1024" width="1024.000000pt" height="1024.000000pt"><g transform="matrix(0 1 -1 0 1024 -0)"><g transform="translate(0.000000,1024.000000) scale(0.100000,-0.100000)" fill="#ffffff" stroke="none">
<path d="M2860 9904 c-346 -91 -504 -456 -337 -779 26 -52 297 -327 2001 -2032 l1971 -1973 -1971 -1972 c-1704 -1706 -1975 -1981 -2001 -2033 -49 -94 -67 -168 -66 -270 1 -338 320 -588 651 -510 155 37 -17 -127 2371 2258 1450 1450 2196 2202 2222 2242 111 167 111 403 0 570 -26 40 -772 792 -2222 2242 -1964 1961 -2190 2184 -2246 2212 -118 59 -258 76 -373 45z"/>
</g></g></svg>