<svg width="184" height="184" viewBox="0 0 184 184" fill="none" xmlns="http://www.w3.org/2000/svg">
<path d="M181.125 85.8324L135.404 89.8481H181.319C182.383 89.8481 183.206 90.719 183.206 91.7351C183.206 92.7511 182.335 93.622 181.319 93.622H135.404L181.125 97.6377C182.093 97.7345 182.867 98.557 182.867 99.5246C182.867 99.573 182.867 99.6214 182.867 99.6698C182.77 100.734 181.851 101.508 180.787 101.412L135.065 97.3958L180.255 105.379C181.174 105.524 181.851 106.347 181.851 107.266C181.851 107.363 181.851 107.508 181.803 107.605C181.609 108.621 180.642 109.346 179.577 109.153L134.388 101.17L178.706 113.072C179.722 113.362 180.303 114.378 180.061 115.394C179.771 116.41 178.755 116.991 177.739 116.749L133.372 104.847L176.529 120.571C177.497 120.91 178.029 122.023 177.69 122.99C177.352 123.958 176.239 124.49 175.271 124.151L132.114 108.427L173.723 127.828C174.691 128.264 175.078 129.425 174.642 130.344C174.207 131.312 173.046 131.699 172.126 131.264L130.517 111.862L170.288 134.796C171.207 135.328 171.497 136.489 170.965 137.408C170.433 138.327 169.272 138.618 168.352 138.086L128.582 115.152L166.175 141.472C167.046 142.053 167.288 143.262 166.659 144.133C166.078 145.004 164.869 145.246 163.998 144.617C163.998 144.617 163.998 144.617 163.95 144.617L126.356 118.297L161.531 147.81C162.353 148.488 162.45 149.697 161.772 150.471C161.095 151.246 159.886 151.391 159.111 150.713L123.937 121.2L156.402 153.665C157.128 154.39 157.128 155.6 156.402 156.374C155.676 157.1 154.467 157.1 153.693 156.374L121.276 123.909L150.79 159.084C151.467 159.906 151.37 161.067 150.548 161.745C149.725 162.422 148.564 162.325 147.887 161.503L118.373 126.329L144.693 163.922C145.274 164.793 145.08 165.954 144.21 166.583C143.339 167.163 142.178 166.97 141.549 166.099L115.228 128.506L138.162 168.276C138.694 169.196 138.355 170.357 137.484 170.889C136.565 171.421 135.404 171.082 134.872 170.212L111.938 130.441L131.34 172.05C131.775 173.018 131.388 174.131 130.421 174.566C129.453 175.001 128.34 174.614 127.905 173.647L108.503 132.038L124.228 175.195C124.566 176.163 124.082 177.275 123.066 177.614C122.099 177.953 120.986 177.469 120.647 176.453L104.923 133.296L116.825 177.662C117.115 178.679 116.486 179.743 115.47 179.985C114.454 180.275 113.39 179.646 113.148 178.63L101.246 134.263L109.229 179.501C109.229 179.598 109.277 179.743 109.277 179.84C109.277 180.904 108.406 181.727 107.39 181.727C106.471 181.727 105.697 181.049 105.504 180.13L97.5204 134.941L101.536 180.662C101.536 180.711 101.536 180.759 101.536 180.807C101.536 181.872 100.665 182.694 99.6492 182.694C98.6816 182.694 97.8591 181.92 97.7623 180.953L93.7466 135.231V181.146C93.7466 182.21 92.8757 183.033 91.8597 183.033C90.8436 183.033 89.9727 182.162 89.9727 181.146V135.231L85.957 180.953C85.8602 182.017 84.941 182.791 83.8765 182.694C82.8121 182.597 82.038 181.678 82.1348 180.614L86.1505 134.892L78.1674 180.082C77.9739 181.098 77.0062 181.823 75.9418 181.63C74.9258 181.436 74.2 180.469 74.3936 179.404L82.3767 134.215L70.4746 178.533C70.1843 179.549 69.1682 180.13 68.1522 179.888C67.1362 179.598 66.5556 178.582 66.7975 177.566L78.6996 133.199L62.9753 176.356C62.6366 177.324 61.5238 177.856 60.5561 177.517C59.5885 177.179 59.0563 176.066 59.395 175.098L75.1193 131.941L55.7179 173.55C55.2825 174.518 54.1213 174.905 53.202 174.469C52.2343 174.034 51.8473 172.873 52.2827 171.953L71.6841 130.344L48.7508 170.115C48.2186 171.034 47.0574 171.324 46.1382 170.792C45.2189 170.26 44.9286 169.099 45.4608 168.179L68.3941 128.409L42.074 166.002C41.4934 166.873 40.2839 167.067 39.413 166.486C38.5421 165.906 38.3486 164.696 38.9291 163.825C38.9291 163.825 38.9291 163.825 38.9291 163.777L65.2493 126.183L35.7359 161.358C35.0585 162.18 33.849 162.277 33.0749 161.599C32.3007 160.922 32.1556 159.713 32.8329 158.938L62.3463 123.764L29.8816 156.229C29.1559 156.955 27.9463 156.955 27.1722 156.229C26.4464 155.503 26.4464 154.294 27.1722 153.52L59.6369 121.055L24.4628 150.568C23.6403 151.246 22.4791 151.149 21.8017 150.326C21.1244 149.504 21.2211 148.343 22.0436 147.665L57.2178 118.152L19.6245 144.472C18.7536 145.053 17.5924 144.859 16.9635 143.988C16.3829 143.117 16.5764 141.956 17.4473 141.327L55.0405 115.007L15.2701 137.94C14.3508 138.473 13.1896 138.134 12.6574 137.263C12.1252 136.344 12.4639 135.183 13.3348 134.65L53.1052 111.717L11.4962 131.118C10.5286 131.554 9.41579 131.167 8.98034 130.199C8.5449 129.232 8.93197 128.119 9.89962 127.683L51.5086 108.282L8.25461 124.151C7.28695 124.49 6.17416 124.006 5.7871 123.039C5.44842 122.071 5.93225 120.958 6.8999 120.571L50.0571 104.847L5.69034 116.749C4.6743 117.039 3.60988 116.41 3.36797 115.394C3.07768 114.378 3.70665 113.314 4.72269 113.072L49.0895 101.17L3.90018 109.153C2.88414 109.346 1.86811 108.669 1.67458 107.605C1.48105 106.589 2.15841 105.572 3.22282 105.379L48.4121 97.3958L2.69061 101.412C1.67458 101.508 0.755316 100.783 0.610168 99.7182V99.6698C0.513403 98.6054 1.28752 97.6861 2.35194 97.5893L48.0735 93.5736H2.15841C1.09399 93.5736 0.271484 92.7027 0.271484 91.6867C0.271484 90.6706 1.14237 89.7998 2.15841 89.7998H48.0735L2.35194 85.784C1.28752 85.6873 0.513403 84.768 0.610168 83.7036C0.706933 82.6391 1.6262 81.865 2.69061 81.9618L48.4121 85.9775L3.22282 77.9944C2.20679 77.8009 1.48105 76.8332 1.67458 75.7688C1.86811 74.7528 2.83576 74.027 3.90018 74.2206L49.0895 82.2037L4.77106 70.3016C3.75503 70.0113 3.17444 68.9953 3.41635 67.9792C3.70665 66.9632 4.72268 66.3826 5.73871 66.6245L50.1055 78.5266L6.94828 62.8023C5.98063 62.4636 5.44842 61.3508 5.7871 60.3832C6.12578 59.4155 7.23858 58.8833 8.20623 59.222L51.3635 74.9463L9.75447 55.5449C8.78682 55.1095 8.39976 53.9483 8.8352 53.029C9.27065 52.0614 10.4318 51.6743 11.3511 52.1098L52.9601 71.5112L13.1896 48.5778C12.2704 48.0456 11.9801 46.8844 12.5123 45.9652C13.0445 45.0459 14.2057 44.7556 15.1249 45.2878L54.8954 68.2211L17.3021 41.901C16.4313 41.3204 16.1894 40.1109 16.8183 39.24C17.3989 38.3691 18.6085 38.1756 19.4794 38.7562C19.4794 38.7562 19.4794 38.7562 19.5277 38.7562L57.121 65.0763L21.9469 35.5629C21.1244 34.8856 21.0276 33.676 21.705 32.9019C22.3823 32.0794 23.5919 31.9826 24.366 32.66L59.5401 62.1733L27.0754 29.7086C26.3497 28.9829 26.3497 27.7733 27.0754 26.9992C27.8012 26.2735 29.0107 26.2735 29.7848 26.9992L62.2495 59.4639L32.7362 24.2898C32.0588 23.4673 32.1556 22.3061 32.9781 21.6287C33.8006 20.9514 34.9618 21.0482 35.6391 21.8707L65.1525 57.0448L38.8324 19.4515C38.2518 18.5806 38.4453 17.4195 39.3162 16.7905C40.1871 16.2099 41.3483 16.4034 41.9773 17.2743L68.2974 54.8676L45.364 15.0971C44.8318 14.1778 45.1705 13.0167 46.0414 12.4844C46.9607 11.9522 48.1218 12.2909 48.654 13.1618L71.5874 52.9323L52.186 11.3233C51.7505 10.3556 52.1376 9.24281 53.1052 8.80737C54.0729 8.37193 55.1857 8.75898 55.6211 9.72664L75.0225 51.3356L59.3466 8.22677C59.0079 7.25912 59.4917 6.14632 60.5078 5.80765C61.4754 5.46897 62.5882 5.95279 62.9269 6.96882L78.6512 50.1261L66.7491 5.75926C66.4588 4.74323 67.0878 3.67882 68.1038 3.4369C69.1199 3.14661 70.1843 3.77558 70.4262 4.79161L82.3283 49.1584L74.3452 3.87234C74.1516 2.85631 74.8774 1.84027 75.8934 1.64674C76.9095 1.45321 77.9255 2.17896 78.119 3.19499L86.1021 48.3843L82.0864 2.66278C81.9896 1.64675 82.7154 0.727484 83.7798 0.582336H83.8282C84.8926 0.485571 85.8118 1.25969 85.9086 2.32411L89.9244 48.0456V2.13057C89.9244 1.06615 90.7952 0.243652 91.8113 0.243652C92.8273 0.243652 93.6982 1.11454 93.6982 2.13057V48.0456L97.7139 2.32411C97.8107 1.35646 98.6332 0.582336 99.6009 0.582336C99.6493 0.582336 99.6976 0.582336 99.746 0.582336C100.81 0.679101 101.585 1.59836 101.488 2.66278L97.472 48.3843L105.455 3.19499C105.6 2.27572 106.423 1.59837 107.342 1.59837C107.439 1.59837 107.584 1.59836 107.681 1.64674C108.697 1.84027 109.423 2.80793 109.229 3.87234L101.246 49.0616L113.148 4.74324C113.438 3.72721 114.454 3.14661 115.47 3.38852C116.486 3.63043 117.067 4.69486 116.825 5.71089L104.923 50.0777L120.647 6.92045C120.986 5.9528 122.099 5.42058 123.066 5.75926C124.034 6.09794 124.566 7.21074 124.228 8.17839L108.503 51.3356L127.905 9.72664C128.34 8.75898 129.501 8.37193 130.421 8.80737C131.34 9.24281 131.775 10.404 131.34 11.3233L111.938 52.9323L134.872 13.1618C135.404 12.2425 136.565 11.9522 137.484 12.4844C138.404 13.0167 138.694 14.1778 138.162 15.0971L115.228 54.8676L141.549 17.2743C142.129 16.4034 143.339 16.2099 144.21 16.7905C145.08 17.3711 145.274 18.5806 144.693 19.4515C144.693 19.4515 144.693 19.4515 144.693 19.4999L118.373 57.0932L147.887 21.919C148.564 21.0965 149.774 20.9998 150.548 21.6771C151.37 22.3545 151.467 23.5641 150.79 24.3382L121.276 59.5123L153.741 27.0476C154.467 26.3218 155.676 26.3218 156.45 27.0476C157.176 27.7733 157.176 28.9829 156.45 29.757L123.937 62.2217L159.111 32.7083C159.934 32.031 161.095 32.1278 161.772 32.9503C162.45 33.7728 162.353 34.9339 161.531 35.6113L126.356 65.1247L163.95 38.8046C164.821 38.224 165.982 38.4175 166.611 39.2884C167.191 40.1593 166.998 41.3204 166.127 41.9494L128.534 68.2695L168.304 45.3362C169.223 44.804 170.385 45.1427 170.917 46.0136C171.449 46.9328 171.11 48.094 170.239 48.6262L130.469 71.5595L172.078 52.1581C173.046 51.7227 174.158 52.1098 174.594 53.0774C175.029 54.0451 174.642 55.1578 173.675 55.5933L132.066 74.9947L175.223 59.2704C176.19 58.8833 177.303 59.4155 177.69 60.3832C178.077 61.3508 177.545 62.4636 176.578 62.8507L133.42 78.575L177.787 66.6729C178.803 66.3826 179.868 67.0116 180.109 68.0276C180.4 69.0436 179.771 70.1081 178.755 70.35L134.388 82.2521L179.626 74.269C179.722 74.269 179.868 74.2206 179.964 74.2206C181.029 74.2206 181.851 75.0915 181.851 76.1075C181.851 77.0268 181.174 77.8009 180.255 77.9944L135.065 85.9775L180.787 81.9618C180.835 81.9618 180.884 81.9618 180.932 81.9618C181.996 81.9618 182.819 82.8327 182.819 83.8487C182.867 84.9131 182.093 85.7356 181.125 85.8324Z" fill="#D3006A"/>
</svg>
