<?xml version="1.0" standalone="no"?>
<!DOCTYPE svg PUBLIC "-//W3C//DTD SVG 20010904//EN"
 "http://www.w3.org/TR/2001/REC-SVG-20010904/DTD/svg10.dtd">
<svg version="1.0" xmlns="http://www.w3.org/2000/svg"
 width="512.000000pt" height="512.000000pt" viewBox="0 0 512.000000 512.000000"
 preserveAspectRatio="xMidYMid meet">

<g transform="translate(0.000000,512.000000) scale(0.100000,-0.100000)"
fill="#ffffff" stroke="none">
<path d="M2470 4913 c-892 -28 -1717 -596 -2075 -1429 -126 -293 -185 -588
-186 -919 0 -190 9 -293 43 -465 118 -606 487 -1154 1013 -1505 288 -192 673
-333 1024 -375 121 -14 421 -14 542 0 710 85 1349 491 1729 1100 174 278 300
639 340 969 14 121 14 421 0 542 -61 512 -289 991 -650 1363 -473 488 -1097
740 -1780 719z m276 -843 c241 -62 435 -256 505 -505 28 -101 31 -258 5 -355
-67 -259 -266 -458 -526 -527 -86 -23 -253 -23 -340 0 -86 23 -211 85 -282
142 -111 87 -206 238 -245 385 -22 87 -22 253 1 340 77 294 318 504 626 543
57 8 180 -4 256 -23z m-651 -1715 c311 -137 623 -136 935 3 152 67 224 62 298
-22 61 -70 66 -164 13 -248 -33 -52 -113 -98 -259 -149 l-93 -32 184 -186
c192 -193 207 -215 207 -296 0 -37 -30 -102 -60 -134 -31 -31 -97 -61 -140
-61 -89 0 -101 9 -367 273 l-253 251 -253 -251 c-266 -264 -278 -273 -367
-273 -43 0 -109 30 -140 61 -30 32 -60 97 -60 134 0 81 15 103 207 296 l184
186 -68 22 c-37 13 -110 43 -161 67 -80 39 -97 52 -122 91 -54 85 -50 178 12
249 34 38 58 54 103 65 47 12 92 1 200 -46z"/>
<path d="M2494 3679 c-63 -15 -144 -69 -181 -120 -112 -157 -58 -371 115 -456
74 -36 182 -38 253 -6 236 106 247 436 19 550 -72 36 -143 47 -206 32z"/>
</g>
</svg>
