<?xml version="1.0" standalone="no"?>
<!DOCTYPE svg PUBLIC "-//W3C//DTD SVG 20010904//EN"
 "http://www.w3.org/TR/2001/REC-SVG-20010904/DTD/svg10.dtd">
<svg version="1.0" xmlns="http://www.w3.org/2000/svg"
 width="980.000000pt" height="980.000000pt" viewBox="0 0 980.000000 980.000000"
 preserveAspectRatio="xMidYMid meet">

<g transform="translate(0.000000,980.000000) scale(0.100000,-0.100000)"
fill="#ffffff" stroke="none">
<path d="M4560 9789 c-1035 -75 -1998 -463 -2800 -1128 -150 -123 -501 -475
-622 -621 -881 -1068 -1270 -2403 -1098 -3765 119 -934 501 -1801 1124 -2545
98 -117 370 -393 496 -504 1328 -1166 3158 -1531 4825 -962 895 305 1700 879
2281 1627 540 695 884 1520 993 2384 178 1410 -247 2797 -1185 3865 -112 128
-386 398 -509 501 -763 642 -1665 1026 -2665 1134 -174 19 -664 27 -840 14z
m340 -3394 c115 -24 160 -51 190 -110 l25 -50 0 -575 0 -575 24 -59 c13 -32
41 -76 62 -97 35 -35 45 -39 87 -39 36 0 60 7 93 28 188 120 528 656 730 1152
30 73 66 146 80 163 l27 32 545 0 c539 0 546 0 574 -21 105 -78 -53 -387 -506
-987 -303 -402 -345 -473 -346 -577 0 -96 24 -129 295 -405 513 -524 651 -725
568 -830 -12 -15 -49 -40 -82 -56 l-61 -29 -437 0 c-398 0 -441 2 -496 19
-147 46 -252 130 -467 376 -267 305 -374 375 -491 319 -113 -54 -184 -223
-200 -479 -8 -129 -25 -172 -84 -211 l-39 -26 -278 5 c-235 4 -292 8 -371 25
-299 69 -595 214 -836 411 -359 295 -770 889 -1185 1711 -212 421 -303 624
-299 674 2 33 9 44 37 63 l34 23 446 0 c417 0 448 -1 474 -19 40 -26 48 -40
127 -222 172 -397 436 -844 607 -1029 140 -151 266 -159 336 -20 60 121 85
381 68 715 -17 350 -59 455 -208 529 -28 15 -65 29 -82 32 -39 8 -39 16 0 49
109 91 263 116 694 110 199 -3 290 -8 345 -20z"/>
</g>
</svg>
