<?xml version="1.0" standalone="no"?>
<!DOCTYPE svg PUBLIC "-//W3C//DTD SVG 20010904//EN"
 "http://www.w3.org/TR/2001/REC-SVG-20010904/DTD/svg10.dtd">
<svg version="1.0" xmlns="http://www.w3.org/2000/svg"
 width="512.000000pt" height="512.000000pt" viewBox="0 0 512.000000 512.000000"
 preserveAspectRatio="xMidYMid meet">

<g transform="translate(0.000000,512.000000) scale(0.100000,-0.100000)"
fill="#ffffff" stroke="none">
<path d="M2350 5054 c-941 -86 -1732 -663 -2095 -1528 -133 -318 -193 -654
-182 -1020 8 -272 46 -483 128 -723 128 -372 318 -674 603 -958 303 -302 674
-518 1081 -630 592 -162 1212 -104 1755 166 499 248 888 638 1130 1134 115
236 186 461 227 715 26 164 26 589 0 743 -92 545 -326 1006 -701 1381 -379
379 -855 618 -1396 701 -101 16 -453 28 -550 19z m1806 -1038 c23 -23 34 -43
34 -62 0 -50 -531 -2577 -550 -2622 -15 -33 -29 -47 -62 -62 -47 -21 -93 -25
-130 -11 -13 5 -203 140 -423 300 -220 160 -403 290 -407 288 -3 -1 -108 -97
-232 -214 -231 -217 -253 -232 -315 -218 -60 13 -71 37 -236 532 -86 260 -160
475 -164 478 -4 2 -183 59 -397 125 -282 88 -395 128 -413 145 -15 15 -25 38
-28 67 -10 85 -18 80 622 318 741 276 2111 786 2385 888 118 44 230 81 249 81
25 1 41 -7 67 -33z"/>
<path d="M3445 3504 c-49 -31 -426 -269 -837 -531 -738 -469 -746 -475 -738
-501 5 -15 57 -184 115 -377 59 -192 108 -352 111 -354 2 -2 4 2 4 10 0 8 11
115 25 239 l24 225 38 35 c21 19 317 287 658 595 766 692 750 677 742 698 -11
29 -49 19 -142 -39z"/>
</g>
</svg>
